<?xml version="1.0" standalone="no"?>
<!DOCTYPE svg PUBLIC "-//W3C//DTD SVG 20010904//EN"
 "http://www.w3.org/TR/2001/REC-SVG-20010904/DTD/svg10.dtd">
<svg version="1.0" xmlns="http://www.w3.org/2000/svg"
 width="512.000000pt" height="512.000000pt" viewBox="0 0 512.000000 512.000000"
 preserveAspectRatio="xMidYMid meet">
<metadata>
Created by potrace 1.14, written by Peter Selinger 2001-2017
</metadata>
<g transform="translate(0.000000,512.000000) scale(0.100000,-0.100000)"
fill="#000000" stroke="none">
<path d="M1623 3866 l-28 -24 -3 -1345 -2 -1346 24 -28 24 -28 995 -3 996 -2
28 24 28 24 3 223 c2 159 0 231 -9 252 -24 58 -16 57 -739 57 l-660 0 0 275 0
275 605 0 c658 0 648 -1 673 55 8 17 12 93 12 231 l0 206 -29 29 -29 29 -616
0 -616 0 0 270 0 269 660 3 660 3 27 28 28 27 3 217 c2 151 0 225 -9 245 -25
61 22 58 -1033 58 l-965 0 -28 -24z"/>
</g>
</svg>
